<?xml version="1.0" encoding="iso-8859-1"?>
<!-- Generator: Adobe Illustrator 16.0.0, SVG Export Plug-In . SVG Version: 6.00 Build 0)  -->
<!DOCTYPE svg PUBLIC "-//W3C//DTD SVG 1.1//EN" "http://www.w3.org/Graphics/SVG/1.1/DTD/svg11.dtd">
<svg version="1.1" id="Capa_1" xmlns="http://www.w3.org/2000/svg" xmlns:xlink="http://www.w3.org/1999/xlink" x="0px" y="0px"
	 width="583.15px" height="583.15px" viewBox="0 0 583.15 583.15" style="enable-background:new 0 0 583.15 583.15;"
	 xml:space="preserve">
<g>
	<g>
		<path d="M394.631,0h-206.11c-25.532,0-46.312,20.779-46.312,46.312v490.527c0,25.532,20.78,46.312,46.312,46.312h206.11
			c25.531,0,46.311-20.779,46.311-46.312V46.312C440.941,20.779,420.162,0,394.631,0z M426.598,536.839
			c0,17.624-14.344,31.968-31.967,31.968h-206.11c-17.624,0-31.968-14.344-31.968-31.968V46.312
			c0-17.624,14.344-31.968,31.968-31.968h206.11c17.623,0,31.967,14.344,31.967,31.968V536.839L426.598,536.839z"/>
		<path d="M407.693,78.049H171.317c-2.639,0-4.781,2.142-4.781,4.781v391.393c0,2.64,2.142,4.781,4.781,4.781h236.376
			c2.639,0,4.781-2.142,4.781-4.781V82.831C412.475,80.182,410.332,78.049,407.693,78.049z M402.912,469.433H176.099V87.612h226.813
			V469.433z"/>
		<circle cx="253.096" cy="54.774" r="6.531"/>
		<path d="M272.001,59.556h39.149c2.639,0,4.781-2.142,4.781-4.781c0-2.64-2.143-4.781-4.781-4.781h-39.149
			c-2.639,0-4.781,2.142-4.781,4.781C267.22,57.414,269.362,59.556,272.001,59.556z"/>
		<path d="M369.031,532.546h-2.992v-1.808l-5.164,2.983l5.164,2.983v-1.76h2.982c5.137,0,6.627,0.287,6.627,2.229
			c0,2.056-0.631,2.228-3.844,2.228h-5.059c-0.66,0-1.195,0.536-1.195,1.195c0,0.66,0.535,1.195,1.195,1.195h5.059
			c2.631,0,6.234,0,6.234-4.618C378.039,532.555,373.469,532.546,369.031,532.546z"/>
		<path d="M218.03,528.146h-16.065c-0.66,0-1.195,0.536-1.195,1.195v15.654c0,0.659,0.536,1.195,1.195,1.195h16.065
			c0.66,0,1.195-0.536,1.195-1.195v-15.654C219.226,528.683,218.69,528.146,218.03,528.146z M216.835,543.801h-13.674v-7.038h6.215
			v-6.216h7.449v13.254H216.835z"/>
		<path d="M289.147,528.414c-0.479-0.382-1.138-0.354-1.578,0.058l-8.31,7.822c-0.354,0.335-0.468,0.852-0.287,1.311
			c0.172,0.459,0.622,0.755,1.109,0.755h1.492v7.124c0,0.66,0.535,1.195,1.195,1.195h3.911c0.66,0,1.195-0.535,1.195-1.195v-4.312
			h1.281v4.312c0,0.66,0.536,1.195,1.195,1.195h4.772c0.66,0,1.195-0.535,1.195-1.195v-6.885h1.98c0.506,0,0.955-0.315,1.127-0.794
			c0.172-0.478,0.02-1.004-0.373-1.329L289.147,528.414z M293.928,537.413v6.885h-2.381v-4.312c0-0.66-0.535-1.195-1.195-1.195
			h-3.671c-0.66,0-1.195,0.535-1.195,1.195v4.312h-1.521v-7.124c0-0.564-0.383-1.033-0.909-1.157l5.394-5.078l6.512,5.298
			C294.377,536.304,293.928,536.811,293.928,537.413z"/>
	</g>
</g>
<g>
</g>
<g>
</g>
<g>
</g>
<g>
</g>
<g>
</g>
<g>
</g>
<g>
</g>
<g>
</g>
<g>
</g>
<g>
</g>
<g>
</g>
<g>
</g>
<g>
</g>
<g>
</g>
<g>
</g>
</svg>
